<svg xmlns="http://www.w3.org/2000/svg" width="28.35" height="28.35" class="slide-icon style-svg replaced-svg svg-replaced-17"><path d="M2.336 5.443a2.945 2.945 0 0 1 1.873-3.717 2.948 2.948 0 0 1 3.718 1.873L13.71 21.13a3.851 3.851 0 0 0-1.685-.064l-5.6-16.971a1.363 1.363 0 1 0-2.59.853.79.79 0 1 1-1.499.495zm22.789 13.752l-9.478 3.127c.336.381.604.836.772 1.348l.015.057 9.185-3.031a.79.79 0 1 0-.494-1.501zm-9.456 4.725a3.1 3.1 0 1 0-5.892 1.943 3.101 3.101 0 0 0 3.918 1.974 3.1 3.1 0 0 0 1.974-3.917zm-2.56 2.445a1.552 1.552 0 1 1-.971-2.948 1.552 1.552 0 0 1 .971 2.948zm9.62-19.06a.394.394 0 0 0-.499-.251l-10.125 3.34a.395.395 0 0 0-.252.5l3.218 9.751c.068.208.291.32.498.252l10.127-3.343a.395.395 0 0 0 .252-.498l-3.219-9.751zm1.218 9.328l-7.522 2.483a.294.294 0 0 1-.369-.188l-2.391-7.243a.294.294 0 0 1 .188-.371l7.521-2.482a.293.293 0 0 1 .371.187l2.389 7.242a.294.294 0 0 1-.187.372zM16.324.917a.252.252 0 0 0-.32-.16L9.53 2.893a.25.25 0 0 0-.159.319l2.057 6.234a.25.25 0 0 0 .318.16l6.474-2.135a.253.253 0 0 0 .161-.319L16.324.917zm.278 5.701L12.54 7.959a.157.157 0 0 1-.199-.102L11.05 3.945a.158.158 0 0 1 .101-.2l4.062-1.341a.16.16 0 0 1 .201.102l1.289 3.912a.16.16 0 0 1-.101.2z" fill="#1a293f"/></svg>